<?xml version="1.0" encoding="UTF-8" standalone="no"?>
<!-- Created with Inkscape (http://www.inkscape.org/) -->

<svg
   xmlns:dc="http://purl.org/dc/elements/1.1/"
   xmlns:cc="http://creativecommons.org/ns#"
   xmlns:rdf="http://www.w3.org/1999/02/22-rdf-syntax-ns#"
   xmlns:svg="http://www.w3.org/2000/svg"
   xmlns="http://www.w3.org/2000/svg"
   xmlns:sodipodi="http://sodipodi.sourceforge.net/DTD/sodipodi-0.dtd"
   xmlns:inkscape="http://www.inkscape.org/namespaces/inkscape"
   width="200"
   height="200"
   viewBox="0 0 52.916667 52.916666"
   version="1.1"
   id="svg12551"
   inkscape:version="0.92.2 (5c3e80d, 2017-08-06)"
   sodipodi:docname="self.svg">
  <defs
     id="defs12545" />
  <sodipodi:namedview
     id="base"
     pagecolor="#ffffff"
     bordercolor="#666666"
     borderopacity="1.0"
     inkscape:pageopacity="0.0"
     inkscape:pageshadow="2"
     inkscape:zoom="0.68099206"
     inkscape:cx="612.70185"
     inkscape:cy="-157.46845"
     inkscape:document-units="mm"
     inkscape:current-layer="barbe"
     showgrid="false"
     inkscape:window-width="1600"
     inkscape:window-height="847"
     inkscape:window-x="-8"
     inkscape:window-y="-8"
     inkscape:window-maximized="1" />
  <metadata
     id="metadata12548">
    <rdf:RDF>
      <cc:Work
         rdf:about="">
        <dc:format>image/svg+xml</dc:format>
        <dc:type
           rdf:resource="http://purl.org/dc/dcmitype/StillImage" />
        <dc:title />
      </cc:Work>
    </rdf:RDF>
  </metadata>
  <g
     inkscape:label="Calque 1"
     inkscape:groupmode="layer"
     id="layer1"
     transform="translate(0,-244.08333)">
    <ellipse
       style="fill:none;fill-opacity:1;stroke:#000000;stroke-width:0.39009234;stroke-miterlimit:4;stroke-dasharray:none;stroke-opacity:1"
       id="oeuil-droit"
       cx="19.705479"
       cy="265.87653"
       rx="1.8440987"
       ry="1.7265704" />
    <ellipse
       style="fill:none;fill-opacity:1;stroke:#000000;stroke-width:0.39009234;stroke-miterlimit:4;stroke-dasharray:none;stroke-opacity:1"
       id="oeuil-gauche"
       cx="27.6493"
       cy="265.73264"
       rx="2.6952214"
       ry="3.021498" />
    <path
       style="fill:none;stroke:#000000;stroke-width:0.38947901px;stroke-linecap:butt;stroke-linejoin:miter;stroke-opacity:1"
       d="m 14.941206,267.71084 c -1.418547,-7.48182 1.336058,-12.10225 3.673944,-12.75181 3.473319,-0.96502 9.065122,-0.85652 11.643298,0.4738 2.111034,1.08924 3.639951,4.96592 2.953137,11.4077 -0.553441,5.19066 -0.178962,7.41125 -1.915663,12.14786 -0.96568,3.06365 -3.587874,4.8745 -6.70867,5.45001 -3.120774,0.57553 -7.293299,-3.59826 -7.577,-7.0514 -1.418547,-4.60419 -0.934221,-5.64751 -2.069046,-9.67616 z"
       id="tete-contour"
       inkscape:connector-curvature="0"
       sodipodi:nodetypes="cssscscc" />
    <path
       style="fill:none;stroke:#000000;stroke-width:0.51775998px;stroke-linecap:butt;stroke-linejoin:miter;stroke-opacity:1"
       d="m 20.287341,283.17259 -1.497542,9.65545 c 0,0 1.628026,0.4991 3.050007,0.67665 1.383963,0.10166 3.445596,0.0797 5.610486,-0.27473 1.959798,-0.49248 3.226068,-1.23451 3.226068,-1.23451 l -2.990416,-8.6304 c -2.611246,1.71081 -5.057912,1.40753 -7.398603,-0.19246 z"
       id="cou"
       inkscape:connector-curvature="0"
       sodipodi:nodetypes="ccccccc" />
    <path
       style="fill:none;stroke:#000000;stroke-width:0.38947901px;stroke-linecap:butt;stroke-linejoin:miter;stroke-opacity:1"
       d="m 22.230675,278.28814 3.510701,-0.10173"
       id="bouche"
       inkscape:connector-curvature="0" />
    <ellipse
       style="fill:none;fill-opacity:1;stroke:#000000;stroke-width:1;stroke-miterlimit:4;stroke-dasharray:none;stroke-opacity:1"
       id="contour"
       cx="176.01907"
       cy="212.03279"
       rx="19.813715"
       ry="23.569651"
       transform="matrix(0.83629721,0.54827636,-0.56597803,0.82442033,0,0)" />
    <g
       id="barbe">
      <path
         style="fill:none;stroke:#000000;stroke-width:0.38947901px;stroke-linecap:butt;stroke-linejoin:miter;stroke-opacity:1"
         d="m 17.577654,272.49505 -2.191996,1.04327 1.093078,-2.02736 -1.231243,0.69469 0.824188,-1.64838 -0.961553,0.4121 0.480777,-1.23629 -0.686824,0.27473 0.03712,-2.29697"
         id="path12499"
         inkscape:connector-curvature="0"
         inkscape:transform-center-x="-16.611166"
         inkscape:transform-center-y="-0.6049224"
         sodipodi:nodetypes="ccc" />
      <path
         sodipodi:nodetypes="ccccccccccccccccccccccccccccccccccccccccccc"
         inkscape:connector-curvature="0"
         id="path12501"
         d="m 17.577654,272.49505 -2.017325,2.5883 2.507638,-0.61044 -3.013691,1.94757 2.813087,-0.82843 -2.462008,2.60887 2.963539,-1.48974 -2.407335,2.95044 2.703025,-1.77229 -1.900587,4.01055 3.291052,-2.02893 -1.987082,2.53763 2.525579,-1.65336 -1.32189,2.77248 2.367178,-2.46726 -1.063208,4.0951 1.404273,-2.54348 0.705306,5.13464 0.831876,-4.76705 1.557455,3.43273 0.442331,-3.54493 2.236625,3.83687 -1.588293,-5.01501 2.949907,4.43805 -1.31868,-5.03679 2.769343,3.88228 -1.252045,-3.93419 2.445221,2.35346 -1.948948,-4.16174 2.051521,2.15284 -1.449687,-3.47545 2.585745,1.32261 -2.184516,-2.44174 2.006127,0.50869 -1.604897,-2.03478 1.805501,0.81392 -1.410634,-2.92616 1.711562,0.89136 -1.21003,-2.21398 1.103365,0.5087 -0.802438,-2.64522 1.805502,1.22088 -1.520469,-3.29625"
         style="fill:none;stroke:#000000;stroke-width:0.38947901px;stroke-linecap:butt;stroke-linejoin:miter;stroke-opacity:1" />
      <path
         style="fill:none;stroke:#000000;stroke-width:0.26458332px;stroke-linecap:butt;stroke-linejoin:miter;stroke-opacity:1"
         d="m 26.468368,255.21931 0.901886,-1.61011 -3.054363,1.19624 1.885174,-1.22792 -4.834856,1.39008"
         id="path16548"
         inkscape:connector-curvature="0"
         sodipodi:nodetypes="ccccc" />
      <path
         style="fill:none;stroke:#000000;stroke-width:0.26458332px;stroke-linecap:butt;stroke-linejoin:miter;stroke-opacity:1"
         d="m 23.145968,280.24149 v 1.1676 l 0.343412,-1.03023 0.206047,1.51101 0.412095,-1.44233 0.274729,1.09892 0.206048,-1.37365 0.206047,1.71706 0.343412,-1.78574"
         id="path16550"
         inkscape:connector-curvature="0" />
      <path
         inkscape:connector-curvature="0"
         id="path12503"
         d="m 23.283869,274.26943 -0.200521,1.62784 -0.501511,-1.0174 -0.20052,1.11914 -0.702157,-0.81392 -0.100261,1.11913 -0.952892,-0.91565 0.250755,1.6787 -1.003063,-1.17 0.902761,2.08565 -1.504595,-0.45783 1.705199,1.37348 -0.922015,0.97238"
         style="fill:none;stroke:#000000;stroke-width:0.38947901px;stroke-linecap:butt;stroke-linejoin:miter;stroke-opacity:1"
         sodipodi:nodetypes="ccccccccccccc" />
      <path
         inkscape:connector-curvature="0"
         id="path12507"
         d="m 23.283869,274.26943 0.752308,2.03479 0.300906,-1.93305 0.601834,1.78044 0.551683,-1.37347 0.05023,1.52608 1.153516,-1.11913 -0.401229,1.78044 1.203688,-0.55957 -0.752308,1.06826 1.203668,0.30522 -1.003063,0.55957 1.053214,0.55956 -0.852589,0.45783 1.755351,1.22088 -1.153517,-0.30522"
         style="fill:none;stroke:#000000;stroke-width:0.38947901px;stroke-linecap:butt;stroke-linejoin:miter;stroke-opacity:1" />
      <path
         inkscape:connector-curvature="0"
         id="path16552"
         d="m 18.067967,274.47291 -2.823926,7.09021 3.124853,-4.85194 -1.504925,7.47222 2.43197,-4.73996 -0.65456,6.78723 1.97645,-3.53282 0.611618,4.59199 0.219578,-1.14596 1.405548,-3.93345 0.969887,5.3571 0.654208,-5.28913 2.28247,5.16843 0.573914,-5.84632 2.953887,5.64658 -1.460875,-6.08702 2.971886,3.4771 -2.464479,-6.94551 3.769444,3.71743 -2.966987,-6.36265"
         style="fill:none;stroke:#000000;stroke-width:0.26458332px;stroke-linecap:butt;stroke-linejoin:miter;stroke-opacity:1"
         sodipodi:nodetypes="cccccccccccccccccccc" />
    </g>
  </g>
</svg>
